<svg version="1.1" xmlns="http://www.w3.org/2000/svg" viewBox="0 0 563.2000122070312 418.16844981121693" width="563.2000122070312" height="418.16844981121693">
  <!-- svg-source:excalidraw -->
  
  <defs>
    <style class="style-fonts">
      @font-face {
        font-family: "Virgil";
        src: url("https://excalidraw.com/Virgil.woff2");
      }
      @font-face {
        font-family: "Cascadia";
        src: url("https://excalidraw.com/Cascadia.woff2");
      }
    </style>
  </defs>
  <rect x="0" y="0" width="563.2000122070312" height="418.16844981121693" fill="#ffffff"/><g stroke-linecap="round" transform="translate(235.2580943409618 10) rotate(0 63.941917866069474 38.268516949888834)"><path d="M0.11 1.48 C40.94 -1.75, 80.95 -0.12, 128.36 -0.04 M-0.06 0.12 C26.85 -1.2, 54.91 -0.31, 127.25 -0.65 M125.95 -0.37 C130.41 23.88, 129.91 47.36, 128.94 76.44 M127.63 -0.07 C128.6 29.49, 128.96 60.49, 128.56 77.01 M129.7 75.62 C90.91 77.08, 57.91 76.13, 0.74 77.38 M127.39 76.63 C90.44 76.78, 51.61 76.58, -0.44 76.67 M-1.05 76.45 C-0.8 52.14, 1.16 25.42, 0.14 0.8 M-0.54 75.95 C-0.96 51.25, -0.56 26.98, -0.99 0.71" stroke="#000000" stroke-width="1" fill="none"/></g><g stroke-linecap="round"><g transform="translate(234.1824965900666 20.716534392244228) rotate(0 64.42096614922215 0)"><path d="M0.07 0.89 C21.33 0.68, 107.34 -0.62, 128.65 -0.72 M-1.36 0.3 C19.64 0.2, 105.66 0.2, 127.6 0.43" stroke="#000000" stroke-width="1" fill="none"/></g></g><mask/><g stroke-linecap="round" transform="translate(239.74612980991668 14.271569800008763) rotate(0 2.5009765625000284 2.5009765625)"><path d="M5 2.5 C5 2.65, 4.99 2.79, 4.96 2.94 C4.94 3.08, 4.9 3.22, 4.85 3.36 C4.8 3.49, 4.74 3.63, 4.67 3.75 C4.59 3.88, 4.51 4, 4.42 4.11 C4.32 4.22, 4.22 4.32, 4.11 4.42 C4 4.51, 3.88 4.59, 3.75 4.67 C3.63 4.74, 3.49 4.8, 3.36 4.85 C3.22 4.9, 3.08 4.94, 2.94 4.96 C2.79 4.99, 2.65 5, 2.5 5 C2.36 5, 2.21 4.99, 2.07 4.96 C1.92 4.94, 1.78 4.9, 1.65 4.85 C1.51 4.8, 1.38 4.74, 1.25 4.67 C1.13 4.59, 1 4.51, 0.89 4.42 C0.78 4.32, 0.68 4.22, 0.59 4.11 C0.49 4, 0.41 3.88, 0.34 3.75 C0.26 3.63, 0.2 3.49, 0.15 3.36 C0.1 3.22, 0.06 3.08, 0.04 2.94 C0.01 2.79, 0 2.65, 0 2.5 C0 2.36, 0.01 2.21, 0.04 2.07 C0.06 1.92, 0.1 1.78, 0.15 1.65 C0.2 1.51, 0.26 1.38, 0.34 1.25 C0.41 1.13, 0.49 1, 0.59 0.89 C0.68 0.78, 0.78 0.68, 0.89 0.59 C1 0.49, 1.13 0.41, 1.25 0.34 C1.38 0.26, 1.51 0.2, 1.65 0.15 C1.78 0.1, 1.92 0.06, 2.07 0.04 C2.21 0.01, 2.36 0, 2.5 0 C2.65 0, 2.79 0.01, 2.94 0.04 C3.08 0.06, 3.22 0.1, 3.36 0.15 C3.49 0.2, 3.63 0.26, 3.75 0.34 C3.88 0.41, 4 0.49, 4.11 0.59 C4.22 0.68, 4.32 0.78, 4.42 0.89 C4.51 1, 4.59 1.13, 4.67 1.25 C4.74 1.38, 4.8 1.51, 4.85 1.65 C4.9 1.78, 4.94 1.92, 4.96 2.07 C4.99 2.21, 5 2.43, 5 2.5 C5.01 2.57, 5.01 2.43, 5 2.5" stroke="none" stroke-width="0" fill="#fa5252"/><path d="M5 2.5 C5 2.65, 4.99 2.79, 4.96 2.94 C4.94 3.08, 4.9 3.22, 4.85 3.36 C4.8 3.49, 4.74 3.63, 4.67 3.75 C4.59 3.88, 4.51 4, 4.42 4.11 C4.32 4.22, 4.22 4.32, 4.11 4.42 C4 4.51, 3.88 4.59, 3.75 4.67 C3.63 4.74, 3.49 4.8, 3.36 4.85 C3.22 4.9, 3.08 4.94, 2.94 4.96 C2.79 4.99, 2.65 5, 2.5 5 C2.36 5, 2.21 4.99, 2.07 4.96 C1.92 4.94, 1.78 4.9, 1.65 4.85 C1.51 4.8, 1.38 4.74, 1.25 4.67 C1.13 4.59, 1 4.51, 0.89 4.42 C0.78 4.32, 0.68 4.22, 0.59 4.11 C0.49 4, 0.41 3.88, 0.34 3.75 C0.26 3.63, 0.2 3.49, 0.15 3.36 C0.1 3.22, 0.06 3.08, 0.04 2.94 C0.01 2.79, 0 2.65, 0 2.5 C0 2.36, 0.01 2.21, 0.04 2.07 C0.06 1.92, 0.1 1.78, 0.15 1.65 C0.2 1.51, 0.26 1.38, 0.34 1.25 C0.41 1.13, 0.49 1, 0.59 0.89 C0.68 0.78, 0.78 0.68, 0.89 0.59 C1 0.49, 1.13 0.41, 1.25 0.34 C1.38 0.26, 1.51 0.2, 1.65 0.15 C1.78 0.1, 1.92 0.06, 2.07 0.04 C2.21 0.01, 2.36 0, 2.5 0 C2.65 0, 2.79 0.01, 2.94 0.04 C3.08 0.06, 3.22 0.1, 3.36 0.15 C3.49 0.2, 3.63 0.26, 3.75 0.34 C3.88 0.41, 4 0.49, 4.11 0.59 C4.22 0.68, 4.32 0.78, 4.42 0.89 C4.51 1, 4.59 1.13, 4.67 1.25 C4.74 1.38, 4.8 1.51, 4.85 1.65 C4.9 1.78, 4.94 1.92, 4.96 2.07 C4.99 2.21, 5 2.43, 5 2.5 C5.01 2.57, 5.01 2.43, 5 2.5" stroke="#000000" stroke-width="1" fill="none"/></g><g stroke-linecap="round" transform="translate(250.00882512241674 14.271569800008763) rotate(0 2.5009765625 2.5009765625)"><path d="M5 2.5 C5 2.65, 4.99 2.79, 4.96 2.94 C4.94 3.08, 4.9 3.22, 4.85 3.36 C4.8 3.49, 4.74 3.63, 4.67 3.75 C4.59 3.88, 4.51 4, 4.42 4.11 C4.32 4.22, 4.22 4.32, 4.11 4.42 C4 4.51, 3.88 4.59, 3.75 4.67 C3.63 4.74, 3.49 4.8, 3.36 4.85 C3.22 4.9, 3.08 4.94, 2.94 4.96 C2.79 4.99, 2.65 5, 2.5 5 C2.36 5, 2.21 4.99, 2.07 4.96 C1.92 4.94, 1.78 4.9, 1.65 4.85 C1.51 4.8, 1.38 4.74, 1.25 4.67 C1.13 4.59, 1 4.51, 0.89 4.42 C0.78 4.32, 0.68 4.22, 0.59 4.11 C0.49 4, 0.41 3.88, 0.34 3.75 C0.26 3.63, 0.2 3.49, 0.15 3.36 C0.1 3.22, 0.06 3.08, 0.04 2.94 C0.01 2.79, 0 2.65, 0 2.5 C0 2.36, 0.01 2.21, 0.04 2.07 C0.06 1.92, 0.1 1.78, 0.15 1.65 C0.2 1.51, 0.26 1.38, 0.34 1.25 C0.41 1.13, 0.49 1, 0.59 0.89 C0.68 0.78, 0.78 0.68, 0.89 0.59 C1 0.49, 1.13 0.41, 1.25 0.34 C1.38 0.26, 1.51 0.2, 1.65 0.15 C1.78 0.1, 1.92 0.06, 2.07 0.04 C2.21 0.01, 2.36 0, 2.5 0 C2.65 0, 2.79 0.01, 2.94 0.04 C3.08 0.06, 3.22 0.1, 3.36 0.15 C3.49 0.2, 3.63 0.26, 3.75 0.34 C3.88 0.41, 4 0.49, 4.11 0.59 C4.22 0.68, 4.32 0.78, 4.42 0.89 C4.51 1, 4.59 1.13, 4.67 1.25 C4.74 1.38, 4.8 1.51, 4.85 1.65 C4.9 1.78, 4.94 1.92, 4.96 2.07 C4.99 2.21, 5 2.43, 5 2.5 C5.01 2.57, 5.01 2.43, 5 2.5" stroke="none" stroke-width="0" fill="#fab005"/><path d="M5 2.5 C5 2.65, 4.99 2.79, 4.96 2.94 C4.94 3.08, 4.9 3.22, 4.85 3.36 C4.8 3.49, 4.74 3.63, 4.67 3.75 C4.59 3.88, 4.51 4, 4.42 4.11 C4.32 4.22, 4.22 4.32, 4.11 4.42 C4 4.51, 3.88 4.59, 3.75 4.67 C3.63 4.74, 3.49 4.8, 3.36 4.85 C3.22 4.9, 3.08 4.94, 2.94 4.96 C2.79 4.99, 2.65 5, 2.5 5 C2.36 5, 2.21 4.99, 2.07 4.96 C1.92 4.94, 1.78 4.9, 1.65 4.85 C1.51 4.8, 1.38 4.74, 1.25 4.67 C1.13 4.59, 1 4.51, 0.89 4.42 C0.78 4.32, 0.68 4.22, 0.59 4.11 C0.49 4, 0.41 3.88, 0.34 3.75 C0.26 3.63, 0.2 3.49, 0.15 3.36 C0.1 3.22, 0.06 3.08, 0.04 2.94 C0.01 2.79, 0 2.65, 0 2.5 C0 2.36, 0.01 2.21, 0.04 2.07 C0.06 1.92, 0.1 1.78, 0.15 1.65 C0.2 1.51, 0.26 1.38, 0.34 1.25 C0.41 1.13, 0.49 1, 0.59 0.89 C0.68 0.78, 0.78 0.68, 0.89 0.59 C1 0.49, 1.13 0.41, 1.25 0.34 C1.38 0.26, 1.51 0.2, 1.65 0.15 C1.78 0.1, 1.92 0.06, 2.07 0.04 C2.21 0.01, 2.36 0, 2.5 0 C2.65 0, 2.79 0.01, 2.94 0.04 C3.08 0.06, 3.22 0.1, 3.36 0.15 C3.49 0.2, 3.63 0.26, 3.75 0.34 C3.88 0.41, 4 0.49, 4.11 0.59 C4.22 0.68, 4.32 0.78, 4.42 0.89 C4.51 1, 4.59 1.13, 4.67 1.25 C4.74 1.38, 4.8 1.51, 4.85 1.65 C4.9 1.78, 4.94 1.92, 4.96 2.07 C4.99 2.21, 5 2.43, 5 2.5 C5.01 2.57, 5.01 2.43, 5 2.5" stroke="#000000" stroke-width="1" fill="none"/></g><g stroke-linecap="round" transform="translate(260.7222415887629 14.722290953854952) rotate(0 2.5009765625 2.5009765625)"><path d="M5 2.5 C5 2.65, 4.99 2.79, 4.96 2.94 C4.94 3.08, 4.9 3.22, 4.85 3.36 C4.8 3.49, 4.74 3.63, 4.67 3.75 C4.59 3.88, 4.51 4, 4.42 4.11 C4.32 4.22, 4.22 4.32, 4.11 4.42 C4 4.51, 3.88 4.59, 3.75 4.67 C3.63 4.74, 3.49 4.8, 3.36 4.85 C3.22 4.9, 3.08 4.94, 2.94 4.96 C2.79 4.99, 2.65 5, 2.5 5 C2.36 5, 2.21 4.99, 2.07 4.96 C1.92 4.94, 1.78 4.9, 1.65 4.85 C1.51 4.8, 1.38 4.74, 1.25 4.67 C1.13 4.59, 1 4.51, 0.89 4.42 C0.78 4.32, 0.68 4.22, 0.59 4.11 C0.49 4, 0.41 3.88, 0.34 3.75 C0.26 3.63, 0.2 3.49, 0.15 3.36 C0.1 3.22, 0.06 3.08, 0.04 2.94 C0.01 2.79, 0 2.65, 0 2.5 C0 2.36, 0.01 2.21, 0.04 2.07 C0.06 1.92, 0.1 1.78, 0.15 1.65 C0.2 1.51, 0.26 1.38, 0.34 1.25 C0.41 1.13, 0.49 1, 0.59 0.89 C0.68 0.78, 0.78 0.68, 0.89 0.59 C1 0.49, 1.13 0.41, 1.25 0.34 C1.38 0.26, 1.51 0.2, 1.65 0.15 C1.78 0.1, 1.92 0.06, 2.07 0.04 C2.21 0.01, 2.36 0, 2.5 0 C2.65 0, 2.79 0.01, 2.94 0.04 C3.08 0.06, 3.22 0.1, 3.36 0.15 C3.49 0.2, 3.63 0.26, 3.75 0.34 C3.88 0.41, 4 0.49, 4.11 0.59 C4.22 0.68, 4.32 0.78, 4.42 0.89 C4.51 1, 4.59 1.13, 4.67 1.25 C4.74 1.38, 4.8 1.51, 4.85 1.65 C4.9 1.78, 4.94 1.92, 4.96 2.07 C4.99 2.21, 5 2.43, 5 2.5 C5.01 2.57, 5.01 2.43, 5 2.5" stroke="none" stroke-width="0" fill="#40c057"/><path d="M5 2.5 C5 2.65, 4.99 2.79, 4.96 2.94 C4.94 3.08, 4.9 3.22, 4.85 3.36 C4.8 3.49, 4.74 3.63, 4.67 3.75 C4.59 3.88, 4.51 4, 4.42 4.11 C4.32 4.22, 4.22 4.32, 4.11 4.42 C4 4.51, 3.88 4.59, 3.75 4.67 C3.63 4.74, 3.49 4.8, 3.36 4.85 C3.22 4.9, 3.08 4.94, 2.94 4.96 C2.79 4.99, 2.65 5, 2.5 5 C2.36 5, 2.21 4.99, 2.07 4.96 C1.92 4.94, 1.78 4.9, 1.65 4.85 C1.51 4.8, 1.38 4.74, 1.25 4.67 C1.13 4.59, 1 4.51, 0.89 4.42 C0.78 4.32, 0.68 4.22, 0.59 4.11 C0.49 4, 0.41 3.88, 0.34 3.75 C0.26 3.63, 0.2 3.49, 0.15 3.36 C0.1 3.22, 0.06 3.08, 0.04 2.94 C0.01 2.79, 0 2.65, 0 2.5 C0 2.36, 0.01 2.21, 0.04 2.07 C0.06 1.92, 0.1 1.78, 0.15 1.65 C0.2 1.51, 0.26 1.38, 0.34 1.25 C0.41 1.13, 0.49 1, 0.59 0.89 C0.68 0.78, 0.78 0.68, 0.89 0.59 C1 0.49, 1.13 0.41, 1.25 0.34 C1.38 0.26, 1.51 0.2, 1.65 0.15 C1.78 0.1, 1.92 0.06, 2.07 0.04 C2.21 0.01, 2.36 0, 2.5 0 C2.65 0, 2.79 0.01, 2.94 0.04 C3.08 0.06, 3.22 0.1, 3.36 0.15 C3.49 0.2, 3.63 0.26, 3.75 0.34 C3.88 0.41, 4 0.49, 4.11 0.59 C4.22 0.68, 4.32 0.78, 4.42 0.89 C4.51 1, 4.59 1.13, 4.67 1.25 C4.74 1.38, 4.8 1.51, 4.85 1.65 C4.9 1.78, 4.94 1.92, 4.96 2.07 C4.99 2.21, 5 2.43, 5 2.5 C5.01 2.57, 5.01 2.43, 5 2.5" stroke="#000000" stroke-width="1" fill="none"/></g><g stroke-opacity="0.9" fill-opacity="0.9" stroke-linecap="round" transform="translate(276.74930257839014 30.774659831870792) rotate(0 21.360101269687846 21.360101269687846)"><path d="M22.43 -0.48 C26.73 -0.62, 32.74 2.53, 36.14 5.95 C39.53 9.38, 42.45 15.49, 42.82 20.06 C43.18 24.63, 40.87 29.68, 38.35 33.35 C35.83 37.03, 31.83 40.74, 27.67 42.13 C23.51 43.51, 17.74 43.64, 13.4 41.65 C9.06 39.65, 3.83 34.48, 1.63 30.16 C-0.57 25.84, -0.99 20.06, 0.2 15.73 C1.39 11.39, 4.77 6.57, 8.76 4.13 C12.75 1.68, 20.93 1.5, 24.16 1.05 C27.39 0.59, 27.9 1.04, 28.16 1.39 M25.31 1.2 C30.11 1.17, 35.37 3.34, 38.35 6.5 C41.33 9.67, 43 15.7, 43.21 20.21 C43.42 24.73, 42.62 29.91, 39.63 33.58 C36.63 37.25, 29.71 41.27, 25.24 42.24 C20.77 43.22, 16.66 41.42, 12.81 39.42 C8.95 37.42, 4.09 34.23, 2.13 30.22 C0.17 26.21, -0.24 19.66, 1.06 15.36 C2.35 11.07, 6 7.03, 9.91 4.44 C13.82 1.85, 22.21 0.48, 24.51 -0.19 C26.8 -0.86, 23.62 0.14, 23.68 0.42" stroke="none" stroke-width="0" fill="#04aaf7"/><path d="M24.78 0.63 C29.12 1.04, 34 3.69, 36.87 6.85 C39.75 10.01, 41.77 14.98, 42.02 19.59 C42.26 24.19, 41.06 30.81, 38.32 34.46 C35.59 38.11, 30.02 40.37, 25.6 41.51 C21.19 42.65, 15.95 43.42, 11.83 41.3 C7.7 39.18, 2.72 33.01, 0.87 28.81 C-0.98 24.61, -0.75 20.22, 0.73 16.12 C2.21 12.01, 5.51 6.67, 9.75 4.16 C14 1.66, 23.12 1.35, 26.22 1.09 C29.31 0.83, 28.36 2.37, 28.34 2.58 M17.72 1.39 C22.08 0.63, 29.14 2.2, 33.27 4.42 C37.4 6.64, 41.22 10.72, 42.48 14.71 C43.73 18.7, 42.47 24.2, 40.8 28.36 C39.14 32.52, 36.7 37.17, 32.48 39.67 C28.26 42.18, 20.06 44.23, 15.49 43.41 C10.92 42.6, 7.54 38.53, 5.05 34.79 C2.57 31.04, 0.49 25.43, 0.58 20.95 C0.68 16.46, 2.71 11.46, 5.63 7.88 C8.55 4.29, 15.88 0.55, 18.09 -0.57 C20.29 -1.69, 18.54 0.85, 18.88 1.18" stroke="#000000" stroke-width="1" fill="none"/></g><g stroke-linecap="round"><g transform="translate(303.8274666403656 46.999011896328454) rotate(0 -3.3114080732229922 5.948935990064598)" fill-rule="evenodd"><path d="M0 0 L-1.83 -0.41 L-7.57 -6.27 L-9.75 -6.1 L-11.36 -4.35 L-12.61 2.37 L-11.27 6.74 L-17.42 8.89 L-18 11.42 L-17.2 13.64 L-15.01 14.04 L-12.38 13.35 L-8.7 9.48 L-3.62 17.87 L-1.49 19.38 L-0.42 18.17 L-3.78 4.8 L-1.52 3.64 L1.39 4.35 L3.16 5.87 L6.21 6.29 L9.24 5.87 L10.81 3.22 L10.8 0.63 L4.22 1.11 L5.49 -5.76 L4.23 -6.26 L2.47 -5.35 L-0.24 -0.92 L0 0" stroke="none" stroke-width="0" fill="#40c057" fill-rule="evenodd"/><path d="M0 0 C-0.31 -0.07, -0.57 0.63, -1.83 -0.41 C-3.09 -1.46, -5.98 -5.62, -7.57 -6.27 C-9.16 -6.93, -10.52 -5.79, -11.36 -4.35 C-12.2 -2.91, -12.63 0.53, -12.61 2.37 C-12.6 4.22, -10.47 5.65, -11.27 6.74 C-12.07 7.83, -16.44 7.74, -17.42 8.89 C-18.41 10.04, -18.04 12.9, -17.2 13.64 C-16.36 14.39, -13.8 14.04, -12.38 13.35 C-10.96 12.66, -10.16 8.72, -8.7 9.48 C-7.24 10.23, -5 16.42, -3.62 17.87 C-2.24 19.32, -0.39 20.35, -0.42 18.17 C-0.44 15.99, -4.08 7.1, -3.78 4.8 C-3.48 2.5, 0.23 4.17, 1.39 4.35 C2.54 4.53, 1.85 5.61, 3.16 5.87 C4.47 6.12, 7.96 6.74, 9.24 5.87 C10.51 5, 11.64 1.43, 10.8 0.63 C9.97 -0.16, 5.11 2.18, 4.22 1.11 C3.34 0.04, 5.78 -4.68, 5.49 -5.76 C5.19 -6.84, 3.43 -6.15, 2.47 -5.35 C1.52 -4.54, 0.17 -1.81, -0.24 -0.92 C-0.65 -0.03, -0.04 -0.15, 0 0 M0 0 C-0.31 -0.07, -0.57 0.63, -1.83 -0.41 C-3.09 -1.46, -5.98 -5.62, -7.57 -6.27 C-9.16 -6.93, -10.52 -5.79, -11.36 -4.35 C-12.2 -2.91, -12.63 0.53, -12.61 2.37 C-12.6 4.22, -10.47 5.65, -11.27 6.74 C-12.07 7.83, -16.44 7.74, -17.42 8.89 C-18.41 10.04, -18.04 12.9, -17.2 13.64 C-16.36 14.39, -13.8 14.04, -12.38 13.35 C-10.96 12.66, -10.16 8.72, -8.7 9.48 C-7.24 10.23, -5 16.42, -3.62 17.87 C-2.24 19.32, -0.39 20.35, -0.42 18.17 C-0.44 15.99, -4.08 7.1, -3.78 4.8 C-3.48 2.5, 0.23 4.17, 1.39 4.35 C2.54 4.53, 1.85 5.61, 3.16 5.87 C4.47 6.12, 7.96 6.74, 9.24 5.87 C10.51 5, 11.64 1.43, 10.8 0.63 C9.97 -0.16, 5.11 2.18, 4.22 1.11 C3.34 0.04, 5.78 -4.68, 5.49 -5.76 C5.19 -6.84, 3.43 -6.15, 2.47 -5.35 C1.52 -4.54, 0.17 -1.81, -0.24 -0.92 C-0.65 -0.03, -0.04 -0.15, 0 0" stroke="#087f5b" stroke-width="1" fill="none"/></g></g><mask/><g stroke-linecap="round"><g stroke-opacity="0.9" fill-opacity="0.9" transform="translate(277.8083650524177 51.73753339505191) rotate(0 21.047557886136133 0)"><path d="M0.28 -0.03 C7.29 0.11, 34.01 1.08, 41.08 1.07 M-1.02 -1.09 C6.42 -1.28, 36.05 -0.87, 43.26 -0.49" stroke="#000000" stroke-width="1" fill="none"/></g></g><mask/><g stroke-linecap="round"><g stroke-opacity="0.9" fill-opacity="0.9" transform="translate(282.90369408219203 36.3030044680857) rotate(0 14.659303301924297 2.593116626464507)"><path d="M0 0 C0.13 0.38, 0.09 1.58, 0.77 2.28 C1.46 2.97, 2.81 3.68, 4.1 4.19 C5.4 4.7, 6.64 5.13, 8.54 5.34 C10.43 5.55, 12.97 5.55, 15.48 5.45 C17.99 5.34, 21.44 5.28, 23.58 4.71 C25.72 4.14, 27.36 2.86, 28.32 2.03 C29.27 1.2, 29.15 0.12, 29.32 -0.26 M0 0 C0.13 0.38, 0.09 1.58, 0.77 2.28 C1.46 2.97, 2.81 3.68, 4.1 4.19 C5.4 4.7, 6.64 5.13, 8.54 5.34 C10.43 5.55, 12.97 5.55, 15.48 5.45 C17.99 5.34, 21.44 5.28, 23.58 4.71 C25.72 4.14, 27.36 2.86, 28.32 2.03 C29.27 1.2, 29.15 0.12, 29.32 -0.26" stroke="#000000" stroke-width="1" fill="none"/></g></g><mask/><g stroke-opacity="0.9" fill-opacity="0.9" stroke-linecap="round" transform="translate(290.9776100061115 29.39213020227811) rotate(0 7.764217176558077 22.41115194065469)"><path d="M8.94 0.06 C10.49 0.9, 12.9 5.61, 13.89 9.47 C14.88 13.34, 14.95 18.35, 14.88 23.24 C14.81 28.12, 14.66 35.38, 13.47 38.79 C12.28 42.2, 9.45 43.2, 7.75 43.73 C6.05 44.25, 4.49 44.36, 3.26 41.97 C2.04 39.57, 0.84 34.03, 0.4 29.35 C-0.04 24.67, -0.01 18.25, 0.64 13.9 C1.28 9.55, 2.55 5.33, 4.28 3.24 C6.02 1.15, 9.86 1.32, 11.05 1.36 C12.24 1.4, 11.45 3.19, 11.42 3.49 M11.56 1.5 C12.95 2.66, 13.61 6.85, 14.46 11.08 C15.31 15.32, 17.21 21.81, 16.68 26.9 C16.14 31.99, 12.71 38.55, 11.26 41.62 C9.82 44.68, 9.4 45.68, 8.02 45.3 C6.64 44.92, 4.33 42.55, 2.99 39.34 C1.65 36.13, 0.38 31.04, -0.01 26.04 C-0.4 21.04, -0.27 13.43, 0.68 9.35 C1.63 5.26, 3.79 2.93, 5.68 1.53 C7.56 0.13, 10.99 0.93, 11.98 0.94 C12.97 0.95, 11.82 1.04, 11.61 1.59" stroke="#000000" stroke-width="1" fill="none"/></g><g stroke-linecap="round"><g stroke-opacity="0.9" fill-opacity="0.9" transform="translate(284.4196455918179 68.04009652652661) rotate(0 14.659303301924297 -2.677051221420811)"><path d="M0 0 C0.68 -0.72, 2.68 -3.4, 4.1 -4.32 C5.53 -5.24, 6.64 -5.3, 8.54 -5.52 C10.43 -5.73, 12.97 -5.73, 15.48 -5.63 C17.99 -5.52, 21.44 -5.45, 23.58 -4.86 C25.72 -4.28, 27.36 -2.95, 28.32 -2.1 C29.27 -1.24, 29.15 -0.12, 29.32 0.27 M0 0 C0.68 -0.72, 2.68 -3.4, 4.1 -4.32 C5.53 -5.24, 6.64 -5.3, 8.54 -5.52 C10.43 -5.73, 12.97 -5.73, 15.48 -5.63 C17.99 -5.52, 21.44 -5.45, 23.58 -4.86 C25.72 -4.28, 27.36 -2.95, 28.32 -2.1 C29.27 -1.24, 29.15 -0.12, 29.32 0.27" stroke="#000000" stroke-width="1" fill="none"/></g></g><mask/><g stroke-linecap="round" transform="translate(373.5917791055722 237.31635412837244) rotate(0 35.408220894427814 54.15214451096949)"><path d="M0.75 0.42 L70.51 -0.35 L69.27 110.21 L-0.6 107.95" stroke="none" stroke-width="0" fill="#ced4da"/><path d="M0.76 -0.34 C19.97 1.54, 40 -1.8, 70.4 0.35 M0.6 0.47 C17.14 -0.22, 34.75 0.4, 70.15 -0.01 M72.06 -1.86 C71.45 41.77, 69.12 87.69, 69.34 109.91 M71.34 -0.41 C70.57 41.59, 70.65 82.2, 70.1 108.52 M71.69 106.45 C53.67 109.2, 37.58 110.1, 0.56 108.52 M70.44 108.64 C51.62 107.84, 34.28 109.15, 0.91 108.78 M-0.99 109.86 C-0.58 71.39, -2.58 35.79, 1.78 1.89 M0.63 108.9 C0.01 73.14, -1.3 40.02, 0.59 0.98" stroke="#000000" stroke-width="1" fill="none"/></g><g stroke-linecap="round" transform="translate(381.6994831956638 245.57353547876932) rotate(0 27.900581767571623 41.41639447687885)"><path d="M0.42 -0.31 L55.46 -1.55 L57.71 82.23 L-0.36 83.86" stroke="none" stroke-width="0" fill="#fff"/><path d="M-0.34 0.06 C16.06 -0.04, 26.86 -0.63, 56.15 -1.11 M0.47 -0.18 C17.34 -0.23, 34.96 -1, 55.79 1 M53.94 1.13 C53.65 19.8, 56.25 40.51, 57.41 84.44 M55.39 0.78 C56.7 17.87, 56.13 33.32, 56.01 82.07 M53.94 81.56 C40.29 81.57, 25.21 83.63, 0.21 82.08 M56.14 82.21 C36.64 83.25, 19.15 83.53, 0.48 83.26 M1.55 83.17 C0.95 49.33, 2.48 20.95, 1.89 0.37 M0.6 83.27 C-0.46 53.85, 0.93 27.18, 0.98 0.37" stroke="#000000" stroke-width="1" fill="none"/></g><g stroke-linecap="round" transform="translate(403.8861529600159 331.9512186013541) rotate(0 5.713912003219434 5.713912003219434)"><path d="M7.96 0.71 C9.07 0.7, 10.92 0.71, 11.4 1.81 C11.89 2.9, 11.16 5.91, 10.88 7.29 C10.6 8.66, 10.67 9.24, 9.7 10.07 C8.74 10.91, 6.18 12.12, 5.08 12.3 C3.97 12.48, 3.88 11.99, 3.08 11.16 C2.29 10.32, 0.75 8.54, 0.31 7.29 C-0.13 6.04, -0.21 4.73, 0.43 3.66 C1.08 2.58, 3.04 1.54, 4.17 0.86 C5.31 0.18, 6.45 -0.5, 7.26 -0.43 C8.07 -0.35, 8.78 1.03, 9.02 1.32 M5.15 1.46 C6.28 1.51, 8.2 0.79, 9.37 1.48 C10.55 2.17, 12.26 4.15, 12.18 5.59 C12.11 7.03, 9.78 9.34, 8.94 10.14 C8.09 10.93, 8.23 10.49, 7.11 10.37 C5.99 10.24, 3.45 9.91, 2.21 9.38 C0.97 8.85, 0.17 8.3, -0.32 7.2 C-0.82 6.1, -1.14 3.98, -0.79 2.79 C-0.43 1.6, 0.54 0.51, 1.81 0.07 C3.08 -0.37, 5.86 0.22, 6.82 0.15 C7.79 0.08, 7.92 -0.64, 7.6 -0.34" stroke="none" stroke-width="0" fill="#fff"/><path d="M8.17 0.83 C9.12 1.43, 9.82 2.4, 10.45 3.6 C11.08 4.8, 12.16 6.93, 11.96 8.06 C11.75 9.18, 10.35 9.8, 9.23 10.37 C8.12 10.93, 6.41 11.72, 5.28 11.47 C4.15 11.23, 3.33 9.64, 2.45 8.89 C1.57 8.13, 0.28 8.17, 0 6.93 C-0.29 5.7, -0.12 2.77, 0.73 1.48 C1.59 0.19, 3.65 -0.6, 5.12 -0.8 C6.6 -1, 8.96 -0.21, 9.59 0.29 C10.23 0.78, 9.21 1.81, 8.94 2.15 M8.72 -0.16 C10.26 0.17, 11.33 2.57, 11.97 3.72 C12.61 4.87, 13.21 5.59, 12.56 6.73 C11.91 7.88, 9.46 9.85, 8.08 10.6 C6.7 11.34, 5.17 11.22, 4.28 11.21 C3.38 11.21, 3.66 11.51, 2.72 10.55 C1.79 9.59, -1.11 6.97, -1.35 5.46 C-1.59 3.94, 0.2 2.27, 1.27 1.47 C2.34 0.68, 3.93 0.93, 5.07 0.67 C6.21 0.4, 7.54 -0.06, 8.11 -0.11 C8.67 -0.16, 8.62 0.08, 8.46 0.34" stroke="#000000" stroke-width="1" fill="none"/></g><g stroke-linecap="round" transform="translate(389.9791735956343 256.11769215490955) rotate(0 19.620891367601075 9.944730235592885)"><path d="M0 0 C0 0, 0 0, 0 0 M0 0 C0 0, 0 0, 0 0 M-1.02 7.18 C1.85 4.13, 2.32 2.57, 5.08 0.89 M-0.46 6.39 C0.62 4.84, 1.86 3.63, 5.35 0.69 M-1.45 12.8 C2.97 6.28, 9.05 1.77, 10.88 0.31 M0.65 11.38 C3.98 8.07, 8.37 3.92, 11.02 -0.43 M-0.75 18.78 C2.74 13.97, 7.41 9.44, 14.89 1.28 M0.51 19.28 C5.54 13.33, 9.31 8.76, 15.47 -0.39 M2.28 23.68 C8.3 14.17, 17.06 7.15, 22.62 -0.88 M1.94 22.14 C9.21 14.39, 14.72 6.77, 21.59 -0.32 M7.86 23.38 C14.97 13.91, 18 9.04, 25.36 1.09 M6.85 23.05 C11.05 17.85, 15.87 10.6, 25.71 -0.55 M12.41 23.7 C17.8 14.85, 24.12 10.15, 30.26 0.68 M12.48 20.96 C16.86 16.99, 22.24 11.8, 31.85 -1.09 M19.82 21.53 C22.52 14.75, 28.68 8.3, 38.26 1.63 M17.2 22.06 C23.07 15.16, 29.71 9.48, 36.59 -0.15 M22.53 20.49 C27.5 14.62, 34.9 7.42, 41.1 1.38 M24.4 21.04 C27.42 17.85, 31.98 11.67, 41.95 1.8 M29.26 20.98 C31.15 17.71, 36.45 13.12, 39.18 7.07 M28.24 21.67 C32.67 16.58, 36.73 12.45, 40.13 7.7 M33.81 20.64 C35.78 19.53, 39.12 15.02, 42.41 12.74 M34.49 21.97 C36.53 19.27, 39.15 16, 41.4 13.31 M-0.04 19.86 C-0.04 19.86, -0.04 19.86, -0.04 19.86 M-0.04 19.86 C-0.04 19.86, -0.04 19.86, -0.04 19.86 M5.58 19.99 C5.17 19.21, 4.25 17.05, 1.09 14.89 M6.18 19.99 C4.34 18.53, 2.4 16.71, 0.53 15.14 M11.96 18.56 C9.48 17.79, 4.45 14.92, -0.69 10.74 M11.65 19.13 C7.42 15.52, 2.87 11.8, 0.21 9.8 M16.99 19.48 C15.22 16.14, 8.18 11.88, 0.87 6.18 M19.11 20.12 C12.91 13.39, 6.08 8.34, 0.77 3.52 M24.2 17.78 C14.09 10.29, 6.68 3.65, 2.32 -2.47 M23.13 19.58 C19 14.99, 15.06 11.89, 1.57 -0.88 M31.66 19.4 C21.18 11.09, 14.52 3.5, 7.23 -0.88 M31.34 20.07 C23.33 13.37, 17.26 7.51, 6.63 -0.96 M38.63 21.82 C30.4 14.05, 25.59 7.5, 11.49 -1.57 M36.35 20.66 C29.75 13.73, 21.75 7.1, 12.92 -0.53 M41.41 20.32 C35.64 15.27, 31.7 10.78, 17.4 -1.3 M40.35 18.92 C32.33 11.81, 24.61 3.23, 18.51 -0.56 M39.9 13.26 C35.22 10.85, 34.39 6.07, 25.4 -0.95 M39.59 12.78 C36.27 9.98, 32.92 6.76, 25.27 -1.51 M40.43 6.99 C39.48 7.02, 36.75 3.18, 29.83 -0.47 M41.57 8.32 C37.67 5.39, 34.48 2.15, 31.56 -1.26 M40.67 1.94 C39.78 1.62, 38.88 0.85, 37.48 -0.55 M40.71 1.97 C39.16 1.23, 38.12 -0.11, 37.66 -0.31" stroke="#fab005" stroke-width="0.5" fill="none"/><path d="M1.94 0.17 C11.87 -0.43, 26.87 -1.12, 39.33 1.6 M0.34 0.1 C15.08 -0.59, 28.22 1.07, 38.78 -0.74 M37.71 -1.19 C40.1 5.73, 40.66 16, 37.36 21.1 M39.64 0.85 C38.98 6.29, 39.37 13.24, 39.11 20.49 M39.71 18.39 C27.12 20.19, 12.48 18.89, 0.74 19.6 M38.88 20.52 C29.91 20.56, 19.14 20.07, 0.84 19.01 M0.22 18.23 C1.59 16.67, 1.72 10.29, 0.78 -0.47 M-0.65 19.03 C0.61 13.26, 0.86 5.83, 0.21 -0.15" stroke="#000000" stroke-width="1" fill="none"/></g><g stroke-linecap="round" transform="translate(389.9791735956343 291.67545219986397) rotate(0 19.620891367601075 9.944730235592885)"><path d="M0 0 C0 0, 0 0, 0 0 M0 0 C0 0, 0 0, 0 0 M0.52 7.05 C0.18 4.9, 1.34 4, 5.52 -0.33 M-0.27 6.21 C1.55 3.96, 3.72 2, 5.32 0.59 M0.9 11.03 C1.06 10.72, 3.26 6.93, 10.98 0.92 M-0.53 12.05 C3.11 9.6, 5.91 6.35, 10.23 -0.59 M0.21 17.72 C4.7 12.93, 9.45 6.01, 16.57 0.12 M0.71 19.42 C3.63 14.36, 7.92 9.86, 14.9 1.11 M4.1 20.86 C10.19 14.02, 18.76 6.38, 20.45 0.86 M2.56 22.14 C7.6 15.13, 12.77 10.23, 21.01 0.06 M8.43 23.89 C10.74 15.25, 17.63 9.91, 27.05 -0.83 M8.09 21.53 C15.35 13.59, 20.56 5.34, 25.41 -0.15 M14.78 21.7 C15.97 18.1, 21.3 10.01, 32.67 -1.66 M12.04 21.52 C18.27 16.59, 23.31 9.5, 30.91 0.31 M17.24 20.47 C25.03 11.8, 33.14 7.03, 38.25 0.27 M17.77 21.64 C23.14 16.13, 29.73 8.89, 36.47 0.34 M22.23 20.46 C29.39 14.74, 35.2 6.23, 41.22 0.02 M22.79 21.72 C31.09 14.22, 36.41 6.78, 41.64 1.36 M27.35 21.12 C32.71 17.67, 36.72 10.35, 40.25 8.82 M28.04 21.91 C32.15 16.84, 37.23 11.87, 40.88 8.31 M33.05 20.72 C36.37 19.81, 36.3 19.42, 40.67 13.92 M34.38 21.61 C36.63 19.29, 38.32 16.93, 41.24 12.98 M-0.04 19.86 C-0.04 19.86, -0.04 19.86, -0.04 19.86 M-0.04 19.86 C-0.04 19.86, -0.04 19.86, -0.04 19.86 M6.23 20.34 C4.42 18.89, 1.34 17.13, 0.35 15.27 M6.24 20.16 C5.25 19.15, 3.93 17.97, 0.6 14.88 M10.84 20.95 C8.26 15.42, 3.8 10.81, 1.44 10.63 M11.41 19.8 C8.63 16.97, 5.64 14.13, 0.5 8.87 M17.9 21.34 C14.1 15, 9.48 12.83, 2.23 5.27 M18.54 20.7 C13.86 17.17, 10.66 14.19, -0.43 5.1 M22.23 18.73 C14.59 13.64, 8.05 7.82, -1.08 -2.61 M24.03 19.21 C18.97 15.49, 14.99 11.46, 0.52 -0.01 M29.99 19.45 C21.18 14.28, 12.7 5.43, 6.65 -0.89 M30.66 19.42 C21.55 12.72, 12.89 4.89, 6.57 -0.74 M38.55 20.2 C30.62 16.98, 23.81 8.65, 12 -0.77 M37.39 20.42 C29.23 13.25, 21.62 7.36, 13.04 -1.65 M42.89 18.08 C34.27 11.97, 25.85 2.59, 18.4 1.06 M41.49 18.03 C36.66 14.14, 30.29 8.83, 19.14 -1.39 M41.08 10.98 C36.6 9.04, 29.62 4.22, 24.79 -2.41 M40.59 12.03 C37.12 8.82, 33.22 6.44, 24.24 -1.52 M40.15 8.68 C40.18 6.63, 36.48 3, 31.41 -0.34 M41.48 7.72 C39.01 5.74, 36.13 4.02, 30.62 -1.13 M40.36 2.09 C39.86 1.19, 38.87 0.62, 37.46 -0.1 M40.38 1.97 C39.56 1.16, 38.11 0.29, 37.71 -0.68" stroke="#fab005" stroke-width="0.5" fill="none"/><path d="M0.17 -1.39 C10.69 -0.03, 21.1 -0.29, 40.85 1.19 M0.1 0.97 C12.96 -0.14, 28.26 -0.6, 38.5 0.62 M38.05 1.05 C37.89 5.71, 40.95 6.34, 40.45 20.92 M40.09 -0.18 C38.68 5.36, 38.64 10.17, 39.84 20.32 M37.74 21.25 C31.67 20.19, 22.24 20.72, -0.29 19.13 M39.87 20.84 C27.07 20.23, 13.49 20.59, -0.88 19.4 M-1.66 21.63 C1.74 14.26, 0.34 5.66, -0.47 1.25 M-0.86 20.62 C0.49 13.71, 0.28 5.78, -0.15 -0.17" stroke="#000000" stroke-width="1" fill="none"/></g><g stroke-linecap="round" transform="translate(93.07634178754523 286.6988176689769) rotate(0 56.32368262651724 18.38672350159277)"><path d="M58.91 -0.6 L112.29 20.03 L57.36 34.91 L1.41 19.02" stroke="none" stroke-width="0" fill="#fd8888" fill-rule="evenodd"/><path d="M55.61 -0.42 C74.39 4.6, 90.98 13.07, 113.84 19.95 M57.97 -0.67 C72.73 6.3, 87.95 9.91, 113.27 18.07 M113.7 17.52 C94.27 26.61, 70.92 32.56, 58.04 35.95 M112.47 18.28 C91.9 25.43, 70.52 33.51, 57.44 35.84 M58.36 37.33 C43.7 31.39, 30.75 27.65, -0.76 19.67 M57.95 37.69 C43.98 33.33, 30.77 27.79, -0.49 19.78 M1.75 20.78 C19.92 13.83, 36.89 6.96, 58.26 1.2 M0.73 19.59 C20.73 13.33, 39.57 6.26, 56.83 -0.77" stroke="#c92a2a" stroke-width="1" fill="none"/></g><g stroke-linecap="round" transform="translate(93.07634178754523 277.82703774071837) rotate(0 56.32368262651724 18.38672350159277)"><path d="M56.4 -0.36 L113.67 19.36 L55.14 38.19 L0.02 17.81" stroke="none" stroke-width="0" fill="#fd8888" fill-rule="evenodd"/><path d="M56.58 0.35 C78 8.02, 102.8 16.67, 113.59 18.63 M56.33 -0.01 C76.62 5.35, 93.49 12.79, 111.72 19.57 M111.17 20.61 C101.75 21.36, 88.96 28.25, 56.18 38.33 M111.93 19.21 C93.14 24.8, 75.6 31.41, 56.07 36.14 M57.56 36.98 C37.96 32.16, 20 24.92, 0.67 17.76 M57.91 37.25 C42.27 33.47, 25.91 27.44, 0.78 19.17 M1.78 20.89 C18.27 13.38, 35.16 7.93, 58.2 0.88 M0.59 19.98 C13.9 14.34, 26.74 9.5, 56.23 0.95" stroke="#c92a2a" stroke-width="1" fill="none"/></g><g stroke-linecap="round" transform="translate(93.07634178754523 265.1964781460062) rotate(0 56.32368262651724 18.38672350159277)"><path d="M56.64 1.03 L113.01 17.14 L58.41 36.8 L-1.19 17.67" stroke="none" stroke-width="0" fill="#fd8888" fill-rule="evenodd"/><path d="M57.35 -1.11 C74.12 7.58, 92.38 12.78, 112.28 19.69 M56.99 1 C73.97 5.52, 92.3 11.22, 113.21 18.23 M114.26 20.61 C97.49 24.07, 87.05 26.3, 58.56 37.57 M112.86 18.24 C91.04 26.05, 70.17 31.37, 56.36 37.01 M57.21 36.02 C44.8 32.64, 30.49 29.61, -1.24 18.28 M57.48 37.2 C36.99 29.96, 14.97 25.17, 0.17 19.11 M1.89 19.37 C12.97 13.91, 25.78 11.46, 57.88 -1.31 M0.98 19.37 C12.22 14.46, 23.99 9.79, 57.95 -0.3" stroke="#c92a2a" stroke-width="1" fill="none"/></g><g stroke-linecap="round" transform="translate(93.07634178754523 252.6648058487089) rotate(0 56.32368262651724 18.38672350159277)"><path d="M58.03 0.36 L110.78 20.41 L57.02 35.59 L-1.33 17.04" stroke="none" stroke-width="0" fill="#fd8888" fill-rule="evenodd"/><path d="M55.89 0.09 C71.39 5.47, 83.55 8.29, 113.33 19.2 M58 -0.47 C78.23 8.17, 100.12 15.66, 111.88 18.4 M114.25 17.11 C94.11 26.75, 72.44 33.54, 57.79 38.48 M111.89 18.86 C97.41 24.57, 80.17 28.52, 57.23 36.02 M56.25 37.51 C35.67 29.53, 15.64 22.5, -0.72 20.26 M57.43 37.62 C33.43 29.53, 12.55 23.16, 0.11 18.17 M0.37 19.79 C21.46 12.35, 45.23 4.61, 55.69 -1.74 M0.37 19.21 C21.01 11.17, 41.67 5.21, 56.7 -0.18" stroke="#c92a2a" stroke-width="1" fill="none"/></g><g stroke-linecap="round"><g transform="translate(303.60003662109375 101.86855357098256) rotate(0 47.600006103515625 62.399993896484375)"><path d="M-0.56 -1.16 C15 19.64, 78.7 102.77, 94.53 123.8 M1.34 0.84 C17.2 21.85, 80.97 103.88, 96.88 124.81" stroke="#000000" stroke-width="1" fill="none"/></g><g transform="translate(303.60003662109375 101.86855357098256) rotate(0 47.600006103515625 62.399993896484375)"><path d="M69.62 107.61 C79.76 113.84, 91.74 120.47, 96.95 126.6 M70.67 108.99 C80.33 114.61, 89.86 121.66, 96.89 124.65" stroke="#000000" stroke-width="1" fill="none"/></g><g transform="translate(303.60003662109375 101.86855357098256) rotate(0 47.600006103515625 62.399993896484375)"><path d="M85.88 95.09 C89.48 106.19, 95.05 117.77, 96.95 126.6 M86.93 96.47 C90.56 106.55, 94.12 118.19, 96.89 124.65" stroke="#000000" stroke-width="1" fill="none"/></g></g><mask/><g stroke-linecap="round"><g transform="translate(364.4000244140625 291.4685596744982) rotate(0 -62 0.79998779296875)"><path d="M0.95 0.77 C-19.7 0.83, -102.15 0.71, -122.86 0.72 M0 0.12 C-20.81 0.29, -102.59 1.52, -123.22 1.8" stroke="#000000" stroke-width="1" fill="none"/></g><g transform="translate(364.4000244140625 291.4685596744982) rotate(0 -62 0.79998779296875)"><path d="M-93.9 -6.97 C-107.54 -3.39, -118.25 -1.46, -124.8 0.81 M-94.75 -7.91 C-101.31 -6.63, -107.41 -3.6, -122.85 1.36" stroke="#000000" stroke-width="1" fill="none"/></g><g transform="translate(364.4000244140625 291.4685596744982) rotate(0 -62 0.79998779296875)"><path d="M-93.61 13.55 C-107.42 9.13, -118.25 3.07, -124.8 0.81 M-94.46 12.61 C-100.89 9.49, -107.06 8.13, -122.85 1.36" stroke="#000000" stroke-width="1" fill="none"/></g></g><mask/><g transform="translate(395.20001220703125 28.06853526043568) rotate(0 65 11.5)"><text x="0" y="19" font-family="Helvetica, Segoe UI Emoji" font-size="20px" fill="#000000" text-anchor="start" style="white-space: pre;" direction="ltr">localhost:8501</text></g><g transform="translate(473.20001220703125 276.5685352604357) rotate(0 40 11.5)"><text x="0" y="19" font-family="Helvetica, Segoe UI Emoji" font-size="20px" fill="#000000" text-anchor="start" style="white-space: pre;" direction="ltr">Streamlit</text></g><g transform="translate(85.800048828125 349.76854746746693) rotate(0 65 11.5)"><text x="0" y="19" font-family="Helvetica, Segoe UI Emoji" font-size="20px" fill="#000000" text-anchor="start" style="white-space: pre;" direction="ltr">localhost:5000</text></g><g transform="translate(10 385.16844981121693) rotate(0 141 11.5)"><text x="0" y="19" font-family="Helvetica, Segoe UI Emoji" font-size="20px" fill="#000000" text-anchor="start" style="white-space: pre;" direction="ltr">Node.js supported NER Module</text></g></svg>